# xmcd
#
# Track frame offsets:
#	150
#	21824
#	40659
#	59578
#	81346
#	104267
#	127881
#	146733
#
# Disc length: 2224 seconds
#
# Revision: 0
# Processed by: cddbd v1.4PL0 Copyright (c) Steve Scherf et al.
# Submitted via: dBpowerAMP V4.0
#
DISCID=6808ae08
DTITLE=Shahyad - 4U
DYEAR=1382
DGENRE=pop
TTITLE0=Delbar
TTITLE1=Man Bishtar
TTITLE2=Pedar
TTITLE3=Khone
TTITLE4=Parvardegar
TTITLE5=Vatan
TTITLE6=Delam Barat Tang Shode
TTITLE7=BiBi Gol
EXTD=
EXTT0=
EXTT1=
EXTT2=
EXTT3=
EXTT4=
EXTT5=
EXTT6=
EXTT7=
PLAYORDER=
